# xmcd CD database file
#
# Track frame offsets:
#	150
#	13270
#	27170
#	47255
#	61092
#	77845
#	89945
#	103965
#	116917
#	131232
#	149967
#	162772
#	179695
#	198232
#	211597
#	228375
#	238632
#	258072
#	275200
#	299152
#
# Disc length: 4243 seconds
#
# Revision: 2
# Processed by: cddbd v1.4b41PL1 Copyright (c) Steve Scherf et al.
# Submitted via: Feurio! 1.50.2ß - http://www.feurio.com
#
DISCID=38109114
DTITLE=Various Artist - So Easy Vol. 2
DYEAR=1900
DGENRE=
TTITLE0=Stepping Out - Bluesette
TTITLE1=Hijos De La Luna - Moonriver
TTITLE2=Capitol Sound Orchestra - Beira Mar
TTITLE3=Sancho Pansa - In A Little Spanish Town
TTITLE4=Capitol Sound Orchestra - Hasta Mas Tarde
TTITLE5=Madfunk - Now`s The Time
TTITLE6=Orchestra Tropical - Moon Of Cocovado
TTITLE7=In The Tipi - Swinging Indian
TTITLE8=Buschmann and Selle - Longing For
TTITLE9=Swinging Orchestra - How High Is The Moon
TTITLE10=C.U. De La Rosa - Magic Melody
TTITLE11=Buschmann and Selle - Sunday By The Blues
TTITLE12=Paperboy - Inside Of You
TTITLE13=Cabrio - Mandy
TTITLE14=Les Amoureux - My Cherie Amour
TTITLE15=Cabrio - Beautiful South
TTITLE16=3rd Vibration - Lavender Hill
TTITLE17=Orchestra Di Napoli - Buena Sera
TTITLE18=Fahrenheit - Nite and Day
TTITLE19=Frank M. Fischer Band - You
EXTD=
EXTT0=
EXTT1=
EXTT2=
EXTT3=
EXTT4=
EXTT5=
EXTT6=
EXTT7=
EXTT8=
EXTT9=
EXTT10=
EXTT11=
EXTT12=
EXTT13=
EXTT14=
EXTT15=
EXTT16=
EXTT17=
EXTT18=
EXTT19=
PLAYORDER=
